<svg height="511pt" viewBox="0 -28 511.99981 511" width="511pt" xmlns="http://www.w3.org/2000/svg"><path d="m364.273438 45.796875h.195312c4.175781 0 7.558594-3.382813 7.558594-7.554687 0-4.171876-3.382813-7.554688-7.558594-7.554688h-.195312c-4.171876 0-7.554688 3.382812-7.554688 7.554688 0 4.171874 3.382812 7.554687 7.554688 7.554687zm0 0"/><path d="m332.203125 45.796875h.191406c4.175781 0 7.558594-3.382813 7.558594-7.554687 0-4.171876-3.382813-7.554688-7.558594-7.554688h-.191406c-4.175781 0-7.558594 3.382812-7.558594 7.554688 0 4.171874 3.382813 7.554687 7.558594 7.554687zm0 0"/><path d="m300.128906 45.9375h.191406c4.175782 0 7.558594-3.382812 7.558594-7.554688 0-4.175781-3.382812-7.558593-7.558594-7.558593h-.191406c-4.175781 0-7.558594 3.382812-7.558594 7.558593 0 4.171876 3.382813 7.554688 7.558594 7.554688zm0 0"/><path d="m236.878906 38.382812c0-4.175781-3.382812-7.558593-7.554687-7.558593h-163.640625c-4.175782 0-7.558594 3.382812-7.558594 7.558593 0 4.171876 3.382812 7.554688 7.558594 7.554688h163.640625c4.171875 0 7.554687-3.382812 7.554687-7.554688zm0 0"/><path d="m67.417969 171.472656h21.277343c1.71875 0 3.15625-.566406 4.3125-1.695312 1.152344-1.128906 1.734376-2.496094 1.734376-4.109375 0-.859375-.164063-1.636719-.484376-2.335938-.324218-.699219-.753906-1.316406-1.289062-1.855469-1.238281-1.179687-2.660156-1.773437-4.273438-1.773437h-14.832031v-11.523437h12.980469c1.769531 0 3.234375-.578126 4.390625-1.734376s1.734375-2.539062 1.734375-4.152343c0-1.558594-.59375-2.925781-1.773438-4.109375-1.183593-1.179688-2.636718-1.773438-4.351562-1.773438h-13.058594v-11.121094h14.507813c1.558593 0 2.929687-.59375 4.109375-1.773437 1.128906-1.289063 1.695312-2.714844 1.695312-4.273437 0-1.609376-.566406-2.992188-1.695312-4.148438-1.125-1.15625-2.496094-1.734375-4.109375-1.734375h-20.953125c-1.828125 0-3.386719.671875-4.675782 2.015625-1.292968 1.34375-1.933593 2.902344-1.933593 4.675781v44.808594c0 1.882813.640625 3.453125 1.933593 4.714844 1.289063 1.265625 2.871094 1.898437 4.753907 1.898437zm0 0"/><path d="m111.707031 172.113281c2.148438 0 3.949219-1.046875 5.402344-3.140625l12.734375-17.8125 12.652344 17.8125c1.613281 2.09375 3.4375 3.140625 5.480468 3.140625.96875 0 1.824219-.160156 2.578126-.480469.753906-.324218 1.453124-.777343 2.097656-1.371093 1.289062-1.289063 1.933594-2.765625 1.933594-4.433594 0-1.609375-.484376-3.0625-1.453126-4.351563l-15.714843-21.195312 12.8125-17.007812c.96875-1.394532 1.453125-2.792969 1.453125-4.191407 0-1.773437-.671875-3.289062-2.015625-4.550781s-2.875-1.894531-4.59375-1.894531c-2.203125 0-4.085938 1.128906-5.640625 3.382812l-9.59375 13.703125-9.589844-13.703125c-1.613281-2.253906-3.496094-3.382812-5.644531-3.382812-1.824219 0-3.382813.644531-4.671875 1.933593-1.292969 1.289063-1.9375 2.792969-1.9375 4.511719 0 1.613281.457031 3.011719 1.371094 4.191407l12.894531 17.007812-15.796875 21.195312c-.96875 1.289063-1.449219 2.742188-1.449219 4.351563 0 1.722656.667969 3.199219 2.011719 4.433594 1.347656 1.234375 2.90625 1.851562 4.679687 1.851562zm0 0"/><path d="m169.636719 172.355469c3.277343 0 5.375-1.5 6.289062-4.511719l2.175781-7.335938h22.324219l2.339844 7.335938c1.019531 2.957031 3.007813 4.433594 5.960937 4.433594 1.773438 0 3.277344-.539063 4.515626-1.613282 1.289062-1.234374 1.933593-2.550781 1.933593-3.949218 0-1.394532-.214843-2.6875-.644531-3.867188l-15.796875-42.960937c-1.773437-4.832031-4.917969-7.253907-9.429687-7.253907-4.570313 0-7.738282 2.417969-9.511719 7.253907l-16.039063 42.878906c-.378906.964844-.566406 2.042969-.566406 3.222656 0 1.773438.617188 3.28125 1.855469 4.515625 1.234375 1.234375 2.765625 1.851563 4.59375 1.851563zm19.667969-46.179688 7.171874 22.644531-14.667968-.078124zm0 0"/><path d="m233.570312 172.195312c3.757813 0 5.9375-2.066406 6.527344-6.207031l4.59375-31.996093 9.671875 32.964843c1.128907 3.492188 3.359375 5.238281 6.691407 5.238281 1.984374 0 3.453124-.375 4.390624-1.128906.941407-.75 1.707032-2.121094 2.296876-4.109375l9.671874-32.964843 4.675782 31.996093c.644531 4.140625 2.847656 6.207031 6.609375 6.207031 1.878906 0 3.4375-.632812 4.675781-1.894531 1.234375-1.261719 1.855469-2.886719 1.855469-4.875l-.164063-1.289062-7.496094-44.492188c-.375-1.984375-1.382812-3.636719-3.019531-4.953125-1.640625-1.316406-3.507812-1.976562-5.605469-1.976562-4.460937 0-7.332031 2.175781-8.621093 6.527344l-9.269531 30.707031-9.109376-30.707031c-1.394531-4.351563-4.269531-6.527344-8.621093-6.527344-2.152344 0-4.058594.671875-5.722657 2.015625-1.667968 1.34375-2.660156 2.980469-2.984374 4.914062l-7.496094 44.492188c-.105469.269531-.160156.699219-.160156 1.289062 0 1.933594.617187 3.546875 1.855468 4.835938 1.234375 1.289062 2.820313 1.933593 4.753906 1.933593zm0 0"/><path d="m61.121094 200.40625c0 4.175781 3.382812 7.558594 7.558594 7.558594h157.644531c4.175781 0 7.558593-3.382813 7.558593-7.558594 0-4.171875-3.382812-7.554688-7.558593-7.554688h-157.644531c-4.171876 0-7.558594 3.382813-7.558594 7.554688zm0 0"/><path d="m226.328125 236.605469h-157.648437c-4.175782 0-7.558594 3.382812-7.558594 7.554687s3.382812 7.558594 7.558594 7.558594h157.644531c4.175781 0 7.558593-3.386719 7.558593-7.558594s-3.382812-7.554687-7.554687-7.554687zm0 0"/><path d="m500 112.175781c-7.472656-7.121093-17.277344-10.914062-27.683594-10.660156-10.378906.246094-20.019531 4.5-27.148437 11.976563l-8.011719 8.429687s-.003906 0-.003906.003906l-10.636719 11.167969v-107.226562c0-13.988282-11.394531-25.367188-25.398437-25.367188h-375.75c-13.984376 0-25.367188 11.378906-25.367188 25.367188v404.238281c0 14.003906 11.382812 25.394531 25.367188 25.394531h375.753906c14.003906 0 25.394531-11.390625 25.394531-25.394531v-184.570313l1.050781-1.101562 65.753906-69.027344c.097657-.097656.179688-.207031.269532-.308594l7.722656-8.097656c14.746094-15.480469 14.160156-40.070312-1.3125-54.824219zm-88.597656 317.929688c0 5.667969-4.613282 10.28125-10.28125 10.28125h-375.753906c-5.652344 0-10.253907-4.613281-10.253907-10.28125v-350.125h175.78125c4.175781 0 7.558594-3.382813 7.558594-7.558594 0-4.171875-3.382813-7.554687-7.558594-7.554687h-175.78125v-39c0-5.652344 4.601563-10.253907 10.253907-10.253907h375.753906c5.667968 0 10.28125 4.601563 10.28125 10.253907v39h-186.628906c-4.175782 0-7.558594 3.382812-7.558594 7.554687 0 4.175781 3.382812 7.558594 7.558594 7.558594h186.628906v68.988281l-122.046875 128.171875h-71.628907c-4.175781 0-7.558593 3.382813-7.558593 7.554687 0 4.171876 3.382812 7.554688 7.558593 7.554688h57.238282l-1.921875 2.023438c-.027344.027343-.050781.058593-.078125.089843-.109375.121094-.21875.246094-.320313.371094-.0625.078125-.125.15625-.183593.234375-.082032.109375-.160157.222656-.238282.339844-.070312.105468-.136718.214844-.203125.324218-.054687.09375-.109375.1875-.160156.285157-.074219.136719-.140625.273437-.207031.410156-.019532.042969-.042969.082031-.058594.121094l-22.804688 52.046875c-.570312 1.335937-.992187 2.691406-1.296874 4.050781h-150.320313c-4.171875 0-7.554687 3.382813-7.554687 7.558594 0 4.171875 3.382812 7.554687 7.554687 7.554687h152.664063c.808593 1.320313 1.777343 2.550782 2.910156 3.664063 3.671875 3.597656 8.464844 5.453125 13.570312 5.453125 3.15625 0 6.429688-.710938 9.628906-2.160156.078126-.035157.15625-.074219.234376-.109376l50.882812-25.191406c.0625-.03125.117188-.070312.175781-.097656.117188-.0625.230469-.125.34375-.195312.109375-.0625.21875-.132813.320313-.203126.097656-.0625.195312-.128906.289062-.199218.113282-.082032.222656-.167969.328125-.257813.082031-.066406.15625-.132812.234375-.199219.113282-.101562.222656-.207031.328125-.3125.03125-.035156.070313-.0625.101563-.097656l21.070312-22.125v67.242188c0 1.378906-1.164062 2.542968-2.542968 2.542968h-268.90625c-1.390626 0-2.570313-1.164062-2.570313-2.542968v-98.078125c0-1.378907 1.175781-2.542969 2.570313-2.542969h106.902343c4.175781 0 7.558594-3.382812 7.558594-7.554688 0-4.171874-3.382813-7.554687-7.558594-7.554687h-106.902343c-9.75 0-17.683594 7.917969-17.683594 17.652344v98.078125c0 9.734375 7.933594 17.65625 17.683594 17.65625h268.90625c9.734374 0 17.65625-7.917969 17.65625-17.65625v-83.113282l46.035156-48.347656zm-148.746094-75.597657 2.246094-5.117187 9.5625 9.101563-4.859375 2.40625c-2.589844 1.140624-4.875 1.007812-6.28125-.367188-1.105469-1.085938-1.855469-3.25-.667969-6.023438zm26.230469-3.15625-17.535157-16.6875 9.757813-22.269531 29.570313 28.167969zm127.738281-117.339843c-.003906 0-.003906 0 0 0l-93.171875 97.847656-34.257813-32.636719 8.679688-9.113281c.101562-.097656.199219-.203125.292969-.308594l126.121093-132.449219c.019532-.019531.035157-.039062.058594-.0625l18.542969-19.472656 34.273437 32.636719zm73.75-77.4375-2.796875 2.925781-34.273437-32.632812 2.808593-2.953126c4.335938-4.550781 10.21875-7.136718 16.5625-7.289062 6.359375-.144531 12.347657 2.15625 16.894531 6.492188 9.441407 9 9.800782 24.011718.804688 33.457031zm0 0"/><path d="m89.617188 324.648438c0 4.171874 3.382812 7.554687 7.554687 7.554687h116.445313c4.175781 0 7.558593-3.382813 7.558593-7.554687 0-4.175782-3.382812-7.558594-7.558593-7.558594h-116.445313c-4.171875 0-7.554687 3.382812-7.554687 7.558594zm0 0"/></svg>